<?xml version="1.0" encoding="UTF-8" standalone="no"?>
<!DOCTYPE svg PUBLIC "-//W3C//DTD SVG 1.1//EN" "http://www.w3.org/Graphics/SVG/1.1/DTD/svg11.dtd">
<svg xmlns="http://www.w3.org/2000/svg" version="1.1" viewBox="0.00 0.00 271.00 406.00">
<g stroke-width="2.00" fill="none" stroke-linecap="butt">
<path stroke="#c9a4ff" vector-effect="non-scaling-stroke" d="
  M 131.78 282.55
  C 140.45 279.09 147.21 275.65 153.33 269.24
  Q 156.99 265.40 157.80 260.67
  Q 158.14 258.70 156.74 260.13
  Q 154.67 262.25 152.00 263.45
  Q 137.67 269.92 120.81 267.64
  C 111.63 266.40 103.66 261.65 100.21 252.78
  Q 98.69 248.87 98.71 241.37
  Q 98.89 151.18 98.61 67.38
  Q 98.57 55.71 93.62 44.76
  C 85.63 27.12 69.16 19.21 50.39 16.36
  Q 37.39 14.38 23.12 14.88
  Q 22.23 14.91 22.23 15.80
  Q 21.90 116.50 22.05 216.50
  Q 22.07 233.49 27.78 249.11
  C 33.14 263.76 43.79 275.20 58.30 282.22
  Q 72.16 288.92 89.28 289.47
  Q 112.59 290.21 131.78 282.55"
/>
<path stroke="#be90ff" vector-effect="non-scaling-stroke" d="
  M 245.31 378.13
  A 1.27 1.27 0.0 0 0 246.52 376.86
  Q 246.94 276.50 246.50 176.37
  Q 246.48 171.31 246.09 166.89
  C 244.34 146.85 236.00 126.96 218.60 115.51
  Q 211.96 111.14 207.96 109.55
  C 191.16 102.87 172.83 102.17 154.99 105.41
  Q 137.90 108.51 124.42 116.60
  C 120.09 119.20 110.29 126.86 111.30 132.83
  A 0.40 0.40 0.0 0 0 111.99 133.04
  Q 114.79 130.07 118.67 128.63
  C 133.98 122.92 161.41 121.07 168.64 140.55
  Q 170.15 144.62 170.13 155.79
  Q 169.98 235.63 170.07 320.00
  C 170.07 325.25 169.94 330.85 170.98 335.99
  Q 172.53 343.71 176.95 351.96
  C 183.55 364.29 196.70 372.00 210.29 375.21
  C 221.45 377.84 233.91 378.72 245.31 378.13"
/>
</g>
<path fill="#ffffff" d="
  M 0.00 0.00
  L 271.00 0.00
  L 271.00 406.00
  L 0.00 406.00
  L 0.00 0.00
  Z
  M 131.78 282.55
  C 140.45 279.09 147.21 275.65 153.33 269.24
  Q 156.99 265.40 157.80 260.67
  Q 158.14 258.70 156.74 260.13
  Q 154.67 262.25 152.00 263.45
  Q 137.67 269.92 120.81 267.64
  C 111.63 266.40 103.66 261.65 100.21 252.78
  Q 98.69 248.87 98.71 241.37
  Q 98.89 151.18 98.61 67.38
  Q 98.57 55.71 93.62 44.76
  C 85.63 27.12 69.16 19.21 50.39 16.36
  Q 37.39 14.38 23.12 14.88
  Q 22.23 14.91 22.23 15.80
  Q 21.90 116.50 22.05 216.50
  Q 22.07 233.49 27.78 249.11
  C 33.14 263.76 43.79 275.20 58.30 282.22
  Q 72.16 288.92 89.28 289.47
  Q 112.59 290.21 131.78 282.55
  Z
  M 245.31 378.13
  A 1.27 1.27 0.0 0 0 246.52 376.86
  Q 246.94 276.50 246.50 176.37
  Q 246.48 171.31 246.09 166.89
  C 244.34 146.85 236.00 126.96 218.60 115.51
  Q 211.96 111.14 207.96 109.55
  C 191.16 102.87 172.83 102.17 154.99 105.41
  Q 137.90 108.51 124.42 116.60
  C 120.09 119.20 110.29 126.86 111.30 132.83
  A 0.40 0.40 0.0 0 0 111.99 133.04
  Q 114.79 130.07 118.67 128.63
  C 133.98 122.92 161.41 121.07 168.64 140.55
  Q 170.15 144.62 170.13 155.79
  Q 169.98 235.63 170.07 320.00
  C 170.07 325.25 169.94 330.85 170.98 335.99
  Q 172.53 343.71 176.95 351.96
  C 183.55 364.29 196.70 372.00 210.29 375.21
  C 221.45 377.84 233.91 378.72 245.31 378.13
  Z"
/>
<path fill="#9348ff" d="
  M 131.78 282.55
  Q 112.59 290.21 89.28 289.47
  Q 72.16 288.92 58.30 282.22
  C 43.79 275.20 33.14 263.76 27.78 249.11
  Q 22.07 233.49 22.05 216.50
  Q 21.90 116.50 22.23 15.80
  Q 22.23 14.91 23.12 14.88
  Q 37.39 14.38 50.39 16.36
  C 69.16 19.21 85.63 27.12 93.62 44.76
  Q 98.57 55.71 98.61 67.38
  Q 98.89 151.18 98.71 241.37
  Q 98.69 248.87 100.21 252.78
  C 103.66 261.65 111.63 266.40 120.81 267.64
  Q 137.67 269.92 152.00 263.45
  Q 154.67 262.25 156.74 260.13
  Q 158.14 258.70 157.80 260.67
  Q 156.99 265.40 153.33 269.24
  C 147.21 275.65 140.45 279.09 131.78 282.55
  Z"
/>
<path fill="#7c20ff" d="
  M 245.31 378.13
  C 233.91 378.72 221.45 377.84 210.29 375.21
  C 196.70 372.00 183.55 364.29 176.95 351.96
  Q 172.53 343.71 170.98 335.99
  C 169.94 330.85 170.07 325.25 170.07 320.00
  Q 169.98 235.63 170.13 155.79
  Q 170.15 144.62 168.64 140.55
  C 161.41 121.07 133.98 122.92 118.67 128.63
  Q 114.79 130.07 111.99 133.04
  A 0.40 0.40 0.0 0 1 111.30 132.83
  C 110.29 126.86 120.09 119.20 124.42 116.60
  Q 137.90 108.51 154.99 105.41
  C 172.83 102.17 191.16 102.87 207.96 109.55
  Q 211.96 111.14 218.60 115.51
  C 236.00 126.96 244.34 146.85 246.09 166.89
  Q 246.48 171.31 246.50 176.37
  Q 246.94 276.50 246.52 376.86
  A 1.27 1.27 0.0 0 1 245.31 378.13
  Z"
/>
</svg>
