<?xml version="1.0" standalone="no"?>
<!DOCTYPE svg PUBLIC "-//W3C//DTD SVG 20010904//EN"
 "http://www.w3.org/TR/2001/REC-SVG-20010904/DTD/svg10.dtd">
<svg version="1.0" xmlns="http://www.w3.org/2000/svg"
 width="360.000000pt" height="360.000000pt" viewBox="0 0 360.000000 360.000000"
 preserveAspectRatio="xMidYMid meet">

<g transform="translate(0.000000,360.000000) scale(0.100000,-0.100000)"
fill="#000000" stroke="none">
<path d="M917 3110 c-48 -71 -87 -132 -87 -135 0 -3 91 -5 203 -5 418 0 599
-40 720 -158 41 -40 87 -107 87 -127 0 -3 -189 -5 -420 -5 l-420 0 -80 -120
c-45 -67 -83 -127 -87 -135 -4 -13 64 -15 521 -15 l526 0 0 -23 c0 -34 -29
-125 -57 -182 -35 -68 -124 -153 -209 -197 -133 -70 -288 -98 -551 -98 l-143
0 0 -125 0 -125 520 -650 520 -650 231 0 c184 0 229 3 222 13 -6 6 -246 308
-535 669 -289 361 -523 660 -520 663 3 3 22 5 43 5 20 0 73 7 118 15 376 72
654 302 730 605 l19 75 164 3 165 2 87 130 c47 72 86 132 86 135 0 3 -114 5
-253 5 l-254 0 -17 61 c-20 72 -55 144 -90 187 -15 16 -26 33 -26 36 0 3 106
6 235 6 l235 0 85 130 c47 71 85 132 85 135 0 3 -398 5 -883 5 l-884 0 -86
-130z"/>
</g>
</svg>
